# xmcd
#
# Track frame offsets:
#	187
#	15300
#	30930
#	44750
#	58877
#	75085
#	92380
#	109990
#	122802
#	135065
#
# Disc length: 1968 seconds
#
# Revision: 1
# Processed by: cddbd v1.5.1PL2 Copyright (c) Steve Scherf et al.
# Submitted via: audiograbber 1.83.01
#
DISCID=6b07ae0a
DTITLE=Various Artist - Country Classics Vol. 10 
DYEAR=1987
DGENRE=Country
TTITLE0=George Strait - All My Ex's Live In Texas
TTITLE1=Reba McEntire - One Promise Too Late
TTITLE2=The Oak Ridge Boys - This Crazy Love
TTITLE3=Glen Campbell - The Hand That Rocks The Cradle
TTITLE4=Waylon Jennings - Fallin' Out
TTITLE5=Steve Wariner - The Weekend
TTITLE6=Patty Loveless - After All
TTITLE7=Steve Earle - Nowhere Road
TTITLE8=Nanci Griffith - Cold Hearts - Closed Minds
TTITLE9=Ray Stevens - Would Jesus Wear A Rolex
EXTD=
EXTT0=George Strait
EXTT1=Reba McEntire
EXTT2=Oak Ridge Boys
EXTT3=
EXTT4=Waylon Jennings
EXTT5=Steve Wariner
EXTT6=Patty Loveless
EXTT7=Steve Earle
EXTT8=Nanci Griffith
EXTT9=Ray Stevens
PLAYORDER=
